<svg width="32" height="32" viewBox="0 0 32 32" fill="none" xmlns="http://www.w3.org/2000/svg">
<g clip-path="url(#clip0_707_23)">
<path d="M23 31H9C4.6 31 1 27.4 1 23V9C1 4.6 4.6 1 9 1H23C27.4 1 31 4.6 31 9V23C31 27.4 27.4 31 23 31Z" stroke="white" stroke-width="2" stroke-miterlimit="10" stroke-linecap="round" stroke-linejoin="round"/>
<path d="M11 13H7V25H11V13Z" stroke="white" stroke-width="2" stroke-miterlimit="10" stroke-linecap="round" stroke-linejoin="round"/>
<path d="M20.5 13C19.6 13 18.7 13.3 18 13.8V13H14V25H16H18V18.5C18 17.7 18.7 17 19.5 17C20.3 17 21 17.7 21 18.5V25H25V17.5C25 15 23 13 20.5 13Z" stroke="white" stroke-width="2" stroke-miterlimit="10" stroke-linecap="round" stroke-linejoin="round"/>
<path d="M9 10C10.1046 10 11 9.10457 11 8C11 6.89543 10.1046 6 9 6C7.89543 6 7 6.89543 7 8C7 9.10457 7.89543 10 9 10Z" stroke="white" stroke-width="2" stroke-miterlimit="10" stroke-linecap="round" stroke-linejoin="round"/>
</g>
<defs>
<clipPath id="clip0_707_23">
<rect width="32" height="32" fill="white"/>
</clipPath>
</defs>
</svg>
