<svg width="800" height="800" viewBox="0 0 800 800" fill="none" xmlns="http://www.w3.org/2000/svg">
<path fill-rule="evenodd" clip-rule="evenodd" d="M666.667 33.332C721.897 33.332 766.667 78.1037 766.667 133.332V666.665C766.667 721.895 721.897 766.665 666.667 766.665H133.334C78.1056 766.665 33.334 721.895 33.334 666.665V133.332C33.334 78.1037 78.1056 33.332 133.334 33.332H666.667ZM666.667 99.9987C685.077 99.9987 700.001 114.923 700.001 133.332V666.665C700.001 685.075 685.077 699.999 666.667 699.999H500.001V466.662H569.207C583.554 466.662 596.291 457.482 600.831 443.869L615.597 399.569C620.994 383.379 608.944 366.662 591.881 366.662H500.001V299.996C500.001 283.329 516.667 266.663 533.334 266.663H600.001C618.411 266.663 633.334 251.739 633.334 233.329V210.463C633.334 199.696 626.457 190.042 616.044 187.294C572.351 175.764 533.334 175.764 533.334 175.764C450.001 175.764 400.001 233.329 400.001 283.329V366.662H333.334C314.925 366.662 300.001 381.585 300.001 399.995V433.329C300.001 451.739 314.924 466.662 333.334 466.662H400.001V699.999H133.334C114.925 699.999 100.001 685.075 100.001 666.665V133.332C100.001 114.923 114.925 99.9987 133.334 99.9987H666.667Z" fill="white"/>
</svg>
