<svg width="800" height="800" viewBox="0 0 800 800" fill="none" xmlns="http://www.w3.org/2000/svg">
<path fill-rule="evenodd" clip-rule="evenodd" d="M400 600C510.457 600 600 510.457 600 400C600 289.543 510.457 200 400 200C289.543 200 200 289.543 200 400C200 510.457 289.543 600 400 600ZM400 533.333C473.637 533.333 533.333 473.637 533.333 400C533.333 326.362 473.637 266.667 400 266.667C326.362 266.667 266.667 326.362 266.667 400C266.667 473.637 326.362 533.333 400 533.333Z" fill="white"/>
<path d="M599.999 166.668C581.589 166.668 566.666 181.592 566.666 200.001C566.666 218.411 581.589 233.335 599.999 233.335C618.409 233.335 633.333 218.411 633.333 200.001C633.333 181.592 618.409 166.668 599.999 166.668Z" fill="white"/>
<path fill-rule="evenodd" clip-rule="evenodd" d="M55.1326 142.534C33.334 185.316 33.334 241.322 33.334 353.332V446.665C33.334 558.675 33.334 614.682 55.1326 657.462C74.3073 695.095 104.903 725.692 142.536 744.865C185.318 766.665 241.324 766.665 353.334 766.665H446.667C558.677 766.665 614.684 766.665 657.464 744.865C695.097 725.692 725.694 695.095 744.867 657.462C766.667 614.682 766.667 558.675 766.667 446.665V353.332C766.667 241.322 766.667 185.316 744.867 142.534C725.694 104.901 695.097 74.3054 657.464 55.1307C614.684 33.332 558.677 33.332 446.667 33.332H353.334C241.324 33.332 185.318 33.332 142.536 55.1307C104.903 74.3054 74.3073 104.901 55.1326 142.534ZM446.667 99.9987H353.334C296.229 99.9987 257.409 100.051 227.403 102.502C198.175 104.89 183.229 109.218 172.802 114.531C147.714 127.314 127.316 147.712 114.533 172.8C109.22 183.227 104.892 198.173 102.504 227.401C100.053 257.407 100.001 296.227 100.001 353.332V446.665C100.001 503.772 100.053 542.589 102.504 572.595C104.892 601.825 109.22 616.772 114.533 627.199C127.316 652.285 147.714 672.682 172.802 685.465C183.229 690.779 198.175 695.109 227.403 697.495C257.409 699.945 296.229 699.999 353.334 699.999H446.667C503.774 699.999 542.591 699.945 572.597 697.495C601.827 695.109 616.774 690.779 627.201 685.465C652.287 672.682 672.684 652.285 685.467 627.199C690.781 616.772 695.111 601.825 697.497 572.595C699.947 542.589 700.001 503.772 700.001 446.665V353.332C700.001 296.227 699.947 257.407 697.497 227.401C695.111 198.173 690.781 183.227 685.467 172.8C672.684 147.712 652.287 127.314 627.201 114.531C616.774 109.218 601.827 104.89 572.597 102.502C542.591 100.051 503.774 99.9987 446.667 99.9987Z" fill="white"/>
</svg>
